<?xml version="1.0" encoding="UTF-8" standalone="no"?>
<svg
   xmlns:dc="http://purl.org/dc/elements/1.1/"
   xmlns:cc="http://creativecommons.org/ns#"
   xmlns:rdf="http://www.w3.org/1999/02/22-rdf-syntax-ns#"
   xmlns:svg="http://www.w3.org/2000/svg"
   xmlns="http://www.w3.org/2000/svg"
   xmlns:sodipodi="http://sodipodi.sourceforge.net/DTD/sodipodi-0.dtd"
   xmlns:inkscape="http://www.inkscape.org/namespaces/inkscape"
   sodipodi:docname="chat.svg"
   inkscape:version="1.0 (4035a4f, 2020-05-01)"
   id="svg18720"
   version="1.1"
   viewBox="0 0 114.3 66.659843"
   height="66.659843mm"
   width="114.3mm">
  <defs
     id="defs18714">
    <clipPath
       id="id14">
      <path
         d="M 226,7.34375 H 394.89062 V 196.30078 H 226 Z m 0,0"
         clip-rule="nonzero"
         id="path15523" />
    </clipPath>
    <clipPath
       id="id15">
      <path
         d="M 70.890625,15 H 253 V 196 H 70.890625 Z m 0,0"
         clip-rule="nonzero"
         id="path15526" />
    </clipPath>
  </defs>
  <sodipodi:namedview
     inkscape:window-maximized="0"
     inkscape:window-y="23"
     inkscape:window-x="0"
     inkscape:window-height="712"
     inkscape:window-width="1252"
     showgrid="false"
     inkscape:document-rotation="0"
     inkscape:current-layer="layer1"
     inkscape:document-units="mm"
     inkscape:cy="125.97137"
     inkscape:cx="216.00001"
     inkscape:zoom="0.35"
     inkscape:pageshadow="2"
     inkscape:pageopacity="0.0"
     borderopacity="1.0"
     bordercolor="#666666"
     pagecolor="#ffffff"
     id="base" />
  <metadata
     id="metadata18717">
    <rdf:RDF>
      <cc:Work
         rdf:about="">
        <dc:format>image/svg+xml</dc:format>
        <dc:type
           rdf:resource="http://purl.org/dc/dcmitype/StillImage" />
        <dc:title></dc:title>
      </cc:Work>
    </rdf:RDF>
  </metadata>
  <g
     transform="translate(-48.683331,-114.83674)"
     id="layer1"
     inkscape:groupmode="layer"
     inkscape:label="Layer 1">
    <g
       id="g19307">
      <g
         id="g15611"
         clip-path="url(#id14)"
         transform="matrix(0.3527778,0,0,0.3527778,23.674692,112.24603)">
        <path
           id="path15609"
           fill-rule="nonzero"
           fill-opacity="1"
           d="m 278.82812,98.195312 h 34.34375 L 296,56.757812 Z M 267.35156,125.9375 h -8.6875 L 292.375,47.949219 h 7.67969 l 33.48047,77.988281 h -8.80079 l -8.60156,-20.48828 H 275.86328 Z M 226.58984,31.375 c 17.86328,-14.851562 42.42969,-24.03125 69.52344,-24.03125 54.53906,0 98.77734,37.183594 98.77734,83.027344 0,45.843746 -44.23828,83.023436 -98.77734,83.023436 l -36.875,22.90625 7.01953,-26.76172 c -13.40625,-3.57031 -25.60156,-9.49609 -35.83984,-17.17969 16.71094,-15.3125 26.98047,-36.03124 26.98047,-58.824214 0,-24.492187 -11.85157,-46.5625 -30.8086,-62.160156"
           fill="#100f0d" />
      </g>
      <g
         id="g15615"
         clip-path="url(#id15)"
         transform="matrix(0.3527778,0,0,0.3527778,23.674692,112.24603)">
        <path
           id="path15613"
           fill-rule="nonzero"
           fill-opacity="1"
           d="m 148.12109,91.320312 c 4.7461,-1.441406 9.00391,-2.128906 13.375,-2.128906 1.29688,0 2.12891,0 4,0.226563 -5.66797,12.289061 -9.20312,18.074221 -14.75781,24.117191 -0.60156,0.60547 -0.60156,0.60547 -0.83203,1.17968 -0.11719,0.11719 -0.23047,0.23047 -0.23047,0.34766 h -0.23047 c 0,-0.69141 -0.11328,-1.52734 -0.25781,-1.98828 -0.34766,-2.61719 -1.06641,-14.214845 -1.06641,-18.820314 z m -6.5,2.703126 c 0,10.878902 0.60547,18.792972 1.78516,25.410152 -3.19531,2.6211 -7.45313,4.375 -10.38672,4.375 -4.25391,0 -6.75781,-3.05078 -6.75781,-8.48828 0,-3.30859 1.4375,-7.45312 4.02734,-11.36718 2.84766,-4.257818 6.03906,-7.195318 11.33203,-9.929692 z m -19.1289,-21.152344 c 0.94922,-0.113282 1.64062,-0.113282 2.01562,-0.113282 0.57422,0 1.63672,0 3.07813,0.113282 2.58593,0.117187 10.15234,0.347656 12.51172,0.347656 h 2.1289 c -0.46094,7.078125 -0.60547,8.863281 -0.60547,14.300781 -6.96093,2.851563 -11.44922,6.042969 -15.35937,10.878907 -4.37109,5.324222 -6.84766,11.941402 -6.84766,17.843752 0,8.51562 5.32422,14.33203 12.88672,14.33203 6.5,0 12.88672,-3.08203 19.96484,-9.69922 7.5625,-6.99219 13,-15.36719 19.38672,-30.160156 10.75782,3.078125 15.58985,8.027344 15.58985,16.085936 0,11.94531 -11.33203,19.97266 -30.83594,21.75781 1.66797,2.47266 2.12891,3.42578 3.30859,6.61719 5.66407,-0.71875 11.70703,-2.35937 17.02735,-4.48828 10.98828,-4.25781 17.71875,-13.23828 17.71875,-23.30859 0,-7.08203 -3.42188,-13.585941 -8.97266,-17.382816 -3.30859,-2.359375 -6.27344,-3.65625 -11.47656,-5.066406 1.4375,-4.027344 2.24219,-6.042969 2.96094,-7.222657 l -7.21875,-2.246093 c -0.34766,2.476562 -1.06641,5.210937 -2.2461,8.289062 -2.35547,-0.144531 -3.65234,-0.257812 -4.94531,-0.257812 -5.09375,0 -9.57813,0.605468 -14.29688,1.898437 0.11719,-4.605469 0.34375,-7.914063 0.69141,-12.402344 8.74219,-0.230469 19.99219,-1.441406 27.90234,-2.734375 7.33204,-1.296875 7.33204,-1.296875 8.85938,-1.410156 l -0.34766,-7.222656 c -6.61328,2.503906 -22.80859,4.863281 -36.03906,5.324218 0.6875,-7.339843 1.17578,-10.417968 1.86719,-12.894531 l -7.79297,-0.574219 c 0.11328,0.574219 0.11328,0.949219 0.11328,1.292969 0,0.949219 -0.11328,2.246094 -0.34375,4.835938 -0.48828,5.699219 -0.48828,5.699219 -0.60547,7.453125 h -2.24219 c -8.97656,0 -13.95312,-0.34375 -17.71874,-1.292969 z m 39.26562,100.523436 33.45313,22.01563 v -27.53907 c 33.65234,-11.59765 57.4414,-40.14843 57.4414,-73.55859 0,-43.65625 -40.70312,-79.054688 -90.89453,-79.054688 -50.19531,0 -90.867185,35.398438 -90.867185,79.054688 0,43.68359 40.671875,79.08203 90.867185,79.08203"
           fill="#100f0d" />
      </g>
    </g>
  </g>
</svg>
