<?xml version="1.0" encoding="UTF-8" standalone="no"?>
<svg
   xmlns:dc="http://purl.org/dc/elements/1.1/"
   xmlns:cc="http://creativecommons.org/ns#"
   xmlns:rdf="http://www.w3.org/1999/02/22-rdf-syntax-ns#"
   xmlns:svg="http://www.w3.org/2000/svg"
   xmlns="http://www.w3.org/2000/svg"
   xmlns:sodipodi="http://sodipodi.sourceforge.net/DTD/sodipodi-0.dtd"
   xmlns:inkscape="http://www.inkscape.org/namespaces/inkscape"
   sodipodi:docname="language.svg"
   inkscape:version="1.0 (4035a4f, 2020-05-01)"
   id="svg19373"
   version="1.1"
   viewBox="0 0 114.22559 132.29167"
   height="132.29167mm"
   width="114.22559mm">
  <defs
     id="defs19367">
    <clipPath
       id="id12">
      <path
         d="M 405,349 H 651 V 680.52734 H 405 Z m 0,0"
         clip-rule="nonzero"
         id="path15517" />
    </clipPath>
    <clipPath
       id="id13">
      <path
         d="M 559,305.52734 H 698 V 586 H 559 Z m 0,0"
         clip-rule="nonzero"
         id="path15520" />
    </clipPath>
  </defs>
  <sodipodi:namedview
     inkscape:window-maximized="0"
     inkscape:window-y="23"
     inkscape:window-x="0"
     inkscape:window-height="712"
     inkscape:window-width="1252"
     showgrid="false"
     inkscape:document-rotation="0"
     inkscape:current-layer="layer1"
     inkscape:document-units="mm"
     inkscape:cy="250.00002"
     inkscape:cx="215.85939"
     inkscape:zoom="0.35"
     inkscape:pageshadow="2"
     inkscape:pageopacity="0.0"
     borderopacity="1.0"
     bordercolor="#666666"
     pagecolor="#ffffff"
     id="base" />
  <metadata
     id="metadata19370">
    <rdf:RDF>
      <cc:Work
         rdf:about="">
        <dc:format>image/svg+xml</dc:format>
        <dc:type
           rdf:resource="http://purl.org/dc/dcmitype/StillImage" />
        <dc:title></dc:title>
      </cc:Work>
    </rdf:RDF>
  </metadata>
  <g
     transform="translate(-48.720536,-82.020829)"
     id="layer1"
     inkscape:groupmode="layer"
     inkscape:label="Layer 1">
    <g
       transform="matrix(0.3527778,0,0,0.3527778,-94.171008,-25.762434)"
       id="g19342">
      <path
         id="path15589"
         fill-rule="nonzero"
         fill-opacity="1"
         d="M 566.80859,353.72656 441.57031,309.54297 V 582.01953 L 566.8125,541.51562 V 353.72266"
         fill="#040606" />
      <path
         id="path15591"
         fill-rule="nonzero"
         fill-opacity="1"
         d="M 563.80469,353.58984 693.84375,309.40625 V 581.88281 L 563.80469,541.37891 V 353.58594"
         fill="#ffffff" />
      <path
         id="path15593"
         fill-rule="nonzero"
         fill-opacity="1"
         d="M 409.08984,629.71484 563.8125,578.16406 V 353.5625 l -154.72266,51.54297 v 224.62109"
         fill="#ffffff" />
      <path
         id="path15595"
         fill-rule="nonzero"
         fill-opacity="1"
         d="m 634.30859,633.11328 21.92578,36.05859 11.57813,-33.49609 -33.49219,-2.5625 m -172.625,-202.13672 c -0.82422,-0.80469 1.06641,6.59375 3.70313,9.25391 4.66797,4.70703 8.3164,5.3164 10.25781,5.39453 4.29687,0.17187 9.59766,-1.07031 12.74609,-2.38672 3.05078,-1.30078 8.38672,-4.02344 10.40625,-8 0.42969,-0.84766 1.61328,-2.27734 0.87891,-5.80078 -0.55469,-2.71094 -2.28516,-3.66016 -4.38672,-3.50781 -2.10937,0.14062 -8.48047,1.83984 -11.57812,2.78906 l -12.20704,3.46875 c -2.76171,0.58594 -8.85156,-0.29297 -9.82031,-1.20703 m 78.04297,88.4414 c -1.21875,-0.4414 -26.44531,-10.88671 -30.01953,-12.59765 -2.92578,-1.40625 -10.10156,-4.4375 -13.47656,-5.81641 9.50781,-14.65234 15.51172,-25.71094 16.3125,-27.39453 l 11.77734,-23.98047 c 0.22656,-1.22656 0.51172,-5.76562 0.29297,-6.83984 -0.22266,-1.10156 -3.91406,1.01172 -8.92188,2.70703 -5.01953,1.69531 -14.55078,7.89453 -18.23828,8.66797 -3.69531,0.77344 -15.51172,5.24609 -21.54297,7.2539 -6.03125,2.00391 -17.48046,5.49219 -22.18359,6.76172 -4.70312,1.26953 -8.82031,1.3711 -11.45703,2.16797 -2.63281,0.79688 0.35156,3.6875 1.05078,4.79297 0.69141,1.10547 3.18359,3.82031 6.08203,4.57422 2.89844,0.75781 7.69531,0.45703 9.87891,-0.043 2.19531,-0.50781 5.96484,-2.35156 6.47265,-3.16016 0.51172,-0.82031 -0.26562,-3.34765 0.58594,-4.10937 0.8711,-0.75781 12.38281,-3.44531 16.73047,-4.75781 4.34766,-1.33594 20.98438,-7.06641 23.24219,-6.77344 -0.71485,2.36719 -14.09766,28.86719 -18.40625,36.77344 -4.3086,7.90625 -29.35938,42.67578 -34.6875,48.80859 -4.04688,4.65625 -13.85547,16.58203 -17.25,19.26953 0.85547,0.23438 6.92969,-0.28515 8.03515,-0.96875 6.89454,-4.24609 18.37891,-18.53906 22.07813,-22.89062 10.98828,-12.88282 20.66016,-26.41797 28.30469,-38.03516 h 0.008 c 1.49219,0.62109 13.55469,10.44531 16.70312,12.625 3.14454,2.17578 15.56641,9.10156 18.25782,10.25 2.6914,1.16406 13.03125,5.92969 13.48047,4.31641 0.4375,-1.60938 -1.86719,-11.13672 -3.07422,-11.60157"
         fill="#040606" />
      <g
         id="g15599"
         clip-path="url(#id12)">
        <path
           id="path15597"
           fill-rule="evenodd"
           fill-opacity="1"
           d="m 481.47266,650.73437 c 2.41796,1.47657 4.69921,2.6836 7.25,3.89063 5.10156,2.55078 10.875,5.23437 16.3789,7.25 7.3711,2.77344 14.89063,5.05469 22.5586,6.84375 4.16015,0.9375 8.72656,1.75781 13.16015,2.41797 0.40235,0 12.35156,1.47656 14.76953,1.47656 h 12.08594 c 4.69922,-0.40234 9.12891,-0.67187 13.83203,-1.34375 3.75781,-0.53516 7.92188,-1.20703 11.94922,-2.14453 2.95313,-0.67188 6.04297,-1.34375 8.99609,-2.28516 2.82032,-0.80468 6.04297,-1.8789 9.13282,-2.95312 2.01172,-0.66797 4.16015,-1.60938 6.30859,-2.41406 1.94922,-0.90235 3.91797,-1.75 5.91016,-2.55079 2.41797,-1.07421 5.23437,-2.55078 7.92187,-3.89453 2.14844,-1.07422 4.56641,-2.41406 6.84766,-3.75781 1.75781,-0.9375 5.77344,-4.02734 7.92187,-4.02734 2.41797,0 4.03125,2.14843 4.03125,4.02734 0,3.89063 -5.23437,5.10156 -7.65234,6.84375 -2.55078,1.75781 -5.64063,3.08984 -8.32422,4.56641 -5.37109,2.8164 -10.87891,5.23047 -16.11328,7.24609 -6.84766,2.55078 -14.36719,4.98047 -21.08203,6.59375 -2.55078,0.53516 -5.10156,1.20703 -7.65625,1.60938 -1.33985,0.26953 -15.30469,2.41796 -19.19922,2.41796 h -17.73047 c -4.70312,-0.40234 -9.66797,-0.9375 -14.36719,-1.61328 -4.16406,-0.66797 -8.59375,-1.47656 -12.75781,-2.41406 -3.22656,-0.67187 -6.71094,-1.61328 -9.82031,-2.55078 -5.3711,-1.47656 -10.60938,-3.36719 -15.70703,-5.36719 -9.26563,-3.49219 -18.9336,-8.05469 -28.0625,-14.09375 -1.61328,-1.07422 -1.76172,-2.14844 -1.76172,-3.36719 0,-2.01562 1.47656,-3.89453 3.89453,-3.89453 2.14844,0 6.44531,3.08594 7.25,3.49219 m 86.35156,-297.6875 v 225.48438 c -0.14453,0.75 -0.45703,1.41796 -0.9375,2.01171 -0.26953,0.40235 -0.80859,0.9375 -1.21094,1.07422 -3.37109,1.33985 -154.54296,52.07422 -156.5664,52.07422 -1.61328,0 -3.08594,-1.07422 -3.89453,-2.8164 0,-0.13672 -0.13282,-0.26954 -0.13282,-0.53907 V 404.72656 c 0.26563,-0.66797 0.40235,-1.61328 0.9375,-2.14844 1.07422,-1.47265 2.95313,-1.75781 4.16016,-2.14843 2.28516,-0.80469 151.19141,-50.73047 153.34375,-50.73047 1.34375,0 4.29688,0.9414 4.29688,3.37109 z m -8.20703,222.12891 -146.32422,48.72265 v -215.8164 l 146.35938,-48.72266 v 215.83203"
           fill="#040606" />
      </g>
      <g
         id="g15603"
         clip-path="url(#id13)">
        <path
           id="path15601"
           fill-rule="evenodd"
           fill-opacity="1"
           d="m 697.92187,309.81641 v 271.52343 c -0.13281,3.08594 -2.28125,4.42969 -4.29687,4.42969 -1.74609,0 -14.36719,-4.29687 -16.51563,-4.98047 l -50.7539,-15.70312 -11.28125,-3.625 c -3.32813,-0.96875 -6.64063,-1.9961 -9.9336,-3.08594 l -43.37109,-13.69141 c -0.53516,-0.13672 -1.87891,-2.01172 -1.87891,-2.41797 V 352.62891 c 0.26563,-0.67188 0.53516,-1.47657 1.20704,-2.01172 1.07421,-1.21094 47.1289,-16.50782 65.25781,-22.55078 4.83594,-1.7461 65.39062,-22.55079 67.26953,-22.55079 2.41797,0 4.29687,1.7461 4.29687,4.29688 z m -8.20703,266.42578 -121.78515,-37.85157 v -181.875 l 121.79297,-41.32421 v 261.0625"
           fill="#040606" />
      </g>
      <path
         id="path15605"
         fill-rule="nonzero"
         fill-opacity="1"
         d="m 728.82812,633.11328 -162.6914,-51.83984 0.67969,-225.65625 162.01953,51.5625 v 225.94922"
         fill="#040606" />
      <path
         id="path15607"
         fill-rule="evenodd"
         fill-opacity="1"
         d="m 637.22266,420.03516 20.96093,6.34765 38.19141,137.57813 -21.53125,-6.53125 -7.73828,-28.24219 -44.49219,-13.48047 -9.57031,23.00781 -21.53906,-6.53125 z m 9.58593,36.42187 -15.96875,38.58594 29.35938,8.89453 -13.39063,-47.48047"
         fill="#ffffff" />
    </g>
  </g>
</svg>
