<?xml version="1.0" encoding="UTF-8" standalone="no"?>
<svg
   xmlns:dc="http://purl.org/dc/elements/1.1/"
   xmlns:cc="http://creativecommons.org/ns#"
   xmlns:rdf="http://www.w3.org/1999/02/22-rdf-syntax-ns#"
   xmlns:svg="http://www.w3.org/2000/svg"
   xmlns="http://www.w3.org/2000/svg"
   xmlns:sodipodi="http://sodipodi.sourceforge.net/DTD/sodipodi-0.dtd"
   xmlns:inkscape="http://www.inkscape.org/namespaces/inkscape"
   sodipodi:docname="phone.svg"
   inkscape:version="1.0 (4035a4f, 2020-05-01)"
   id="svg16853"
   version="1.1"
   viewBox="0 0 114.3 114.29863"
   height="114.29863mm"
   width="114.3mm">
  <defs
     id="defs16847">
    <clipPath
       id="id1">
      <path
         d="M 9.429688,190.01953 H 333.42969 v 324 H 9.429688 Z m 0,0"
         clip-rule="nonzero"
         id="path15484" />
    </clipPath>
  </defs>
  <sodipodi:namedview
     inkscape:window-maximized="0"
     inkscape:window-y="23"
     inkscape:window-x="0"
     inkscape:window-height="712"
     inkscape:window-width="1252"
     showgrid="false"
     inkscape:document-rotation="0"
     inkscape:current-layer="layer1"
     inkscape:document-units="mm"
     inkscape:cy="215.99741"
     inkscape:cx="216"
     inkscape:zoom="0.35"
     inkscape:pageshadow="2"
     inkscape:pageopacity="0.0"
     borderopacity="1.0"
     bordercolor="#666666"
     pagecolor="#ffffff"
     id="base" />
  <metadata
     id="metadata16850">
    <rdf:RDF>
      <cc:Work
         rdf:about="">
        <dc:format>image/svg+xml</dc:format>
        <dc:type
           rdf:resource="http://purl.org/dc/dcmitype/StillImage" />
        <dc:title></dc:title>
      </cc:Work>
    </rdf:RDF>
  </metadata>
  <g
     transform="translate(-48.683333,-91.017353)"
     id="layer1"
     inkscape:groupmode="layer"
     inkscape:label="Layer 1">
    <g
       transform="matrix(0.3527778,0,0,0.3527778,45.356741,23.982681)"
       clip-path="url(#id1)"
       id="g15553">
      <path
         fill="#000000"
         d="m 329.42187,427.86719 c 2.36719,6.32031 3.7461,13.10937 3.95704,20.21093 0.0508,0.67579 0.0508,1.35157 0.0508,2.05469 0,35.26953 -28.61328,63.88281 -63.88672,63.88281 -143.66016,0 -260.113282,-116.45312 -260.113282,-260.11328 0,-35.26953 28.613281,-63.88281 63.886718,-63.88281 0.699219,0 1.378906,0 2.054688,0.0508 7.101562,0.20703 13.914062,1.58594 20.234375,3.95313 L 119.58986,297.8633 c 0,0.0508 -0.0273,0.0742 -0.0781,0.10156 l -43.984376,19.76953 -0.132813,0.0508 c 20.18746,61.46481 68.800739,110.082 130.265589,130.26559 l 0.0547,-0.12891 19.79297,-44.01171 103.91406,23.95703"
         fill-opacity="1"
         fill-rule="nonzero"
         id="path15551" />
    </g>
  </g>
</svg>
