<?xml version="1.0" encoding="UTF-8" standalone="no"?>
<svg
   xmlns:dc="http://purl.org/dc/elements/1.1/"
   xmlns:cc="http://creativecommons.org/ns#"
   xmlns:rdf="http://www.w3.org/1999/02/22-rdf-syntax-ns#"
   xmlns:svg="http://www.w3.org/2000/svg"
   xmlns="http://www.w3.org/2000/svg"
   xmlns:sodipodi="http://sodipodi.sourceforge.net/DTD/sodipodi-0.dtd"
   xmlns:inkscape="http://www.inkscape.org/namespaces/inkscape"
   sodipodi:docname="shopping-cart.svg"
   inkscape:version="1.0 (4035a4f, 2020-05-01)"
   id="svg16230"
   version="1.1"
   viewBox="0 0 113.78071 103.82278"
   height="103.82278mm"
   width="113.78071mm">
  <defs
     id="defs16224">
    <clipPath
       id="id19">
      <path
         d="M 16.871094,425.56641 H 340 v 294.75 H 16.871094 Z m 0,0"
         clip-rule="nonzero"
         id="path15538" />
    </clipPath>
  </defs>
  <sodipodi:namedview
     inkscape:window-maximized="0"
     inkscape:window-y="23"
     inkscape:window-x="0"
     inkscape:window-height="712"
     inkscape:window-width="1252"
     showgrid="false"
     inkscape:document-rotation="0"
     inkscape:current-layer="layer1"
     inkscape:document-units="mm"
     inkscape:cy="196.20053"
     inkscape:cx="215.01867"
     inkscape:zoom="0.35"
     inkscape:pageshadow="2"
     inkscape:pageopacity="0.0"
     borderopacity="1.0"
     bordercolor="#666666"
     pagecolor="#ffffff"
     id="base" />
  <metadata
     id="metadata16227">
    <rdf:RDF>
      <cc:Work
         rdf:about="">
        <dc:format>image/svg+xml</dc:format>
        <dc:type
           rdf:resource="http://purl.org/dc/dcmitype/StillImage" />
        <dc:title></dc:title>
      </cc:Work>
    </rdf:RDF>
  </metadata>
  <g
     transform="translate(-48.942977,-96.255276)"
     id="layer1"
     inkscape:groupmode="layer"
     inkscape:label="Layer 1">
    <g
       clip-path="url(#id19)"
       id="g15631"
       transform="matrix(0.3527778,0,0,0.3527778,42.99123,-53.950897)">
      <path
         fill="#100f0d"
         d="m 253.47656,669.83203 c 8.04297,0 14.34375,6.27734 14.34375,14.36328 0,8.05469 -6.30078,14.33203 -14.34375,14.33203 -8.04687,0 -14.32031,-6.27734 -14.32031,-14.33203 0,-8.08594 6.27344,-14.36328 14.32031,-14.36328 z m -107.55078,0 c 8.04688,0 14.34375,6.27734 14.34375,14.36328 0,8.05469 -6.29687,14.33203 -14.34375,14.33203 -8.04687,0 -14.34766,-6.27734 -14.34766,-14.33203 0,-8.08594 6.30079,-14.36328 14.34766,-14.36328 z m 107.55078,-21.52734 c -19.67187,0 -35.85156,16.19531 -35.85156,35.89062 0,19.69141 16.17969,35.88672 35.85156,35.88672 19.66797,0 35.84766,-16.19531 35.84766,-35.88672 0,-19.69531 -16.17969,-35.89062 -35.84766,-35.89062 z m -107.55078,0 c -19.67187,0 -35.85156,16.19531 -35.85156,35.89062 0,19.69141 16.17969,35.88672 35.85156,35.88672 19.67188,0 35.84766,-16.19531 35.84766,-35.88672 0,-19.69531 -16.17578,-35.89062 -35.84766,-35.89062 z M 249.89453,537.02734 h 52.77344 l -7.50391,32.30469 h -45.26953 z m -71.69922,0 h 50.19531 v 32.30469 h -50.19531 z m -75.27734,0 h 53.77344 v 32.30469 h -46.96094 z m 146.97656,-53.83203 h 65.31641 L 307.70703,515.5 h -57.8125 z m -71.69922,0 h 50.19531 V 515.5 h -50.19531 z m -86.703122,0 H 156.69141 V 515.5 H 98.308594 Z M 27.636719,425.78125 c -5.953125,0 -10.765625,4.81641 -10.765625,10.77734 0,5.9336 4.8125,10.75 10.765625,10.75 h 34.277343 l 36.964844,174.625 c 1.460934,6.56641 5.757814,12.03907 11.195314,12.01172 h 179.25 c 5.69922,0.0547 10.91015,-5.07422 10.91015,-10.77734 0,-5.67578 -5.21093,-10.83594 -10.91015,-10.75 H 118.80859 l -4.58203,-21.5586 h 189.44531 c 4.8086,-0.0273 9.36329,-3.69531 10.42188,-8.39843 l 25.08203,-107.66407 c 1.40234,-6.25 -4.00781,-13.07031 -10.42187,-13.1289 H 86.996094 l -5.8125,-27.375 c -1.03125,-4.75781 -5.667969,-8.51172 -10.539063,-8.51172 H 27.636719"
         fill-opacity="1"
         fill-rule="nonzero"
         id="path15629" />
    </g>
  </g>
</svg>
